<?xml version="1.0" encoding="UTF-8"?>
<svg xmlns="http://www.w3.org/2000/svg" xmlns:xlink="http://www.w3.org/1999/xlink" width="168px" height="42px" viewBox="0 0 166 42" version="1.1">
<g id="surface1">
<path style=" stroke:none;fill-rule:nonzero;fill:rgb(99.607843%,99.215686%,99.607843%);fill-opacity:1;" d="M 120.0625 42.132812 C 80.042969 42.132812 40.085938 42.132812 0.128906 42.132812 C 0.128906 28.132812 0.128906 14.132812 0.128906 0.132812 C 55.464844 0.132812 110.796875 0.132812 166.128906 0.132812 C 166.128906 14.132812 166.128906 28.132812 166.128906 42.132812 C 150.796875 42.132812 135.460938 42.132812 120.0625 42.132812 M 123.992188 16.816406 C 123.074219 16.816406 122.15625 16.820312 121.117188 16.800781 C 120.003906 16.65625 119.132812 16.90625 118.503906 17.996094 C 117.855469 19.121094 117.003906 20.125 116.207031 21.230469 C 115.222656 19.890625 114.269531 18.617188 113.34375 17.324219 C 113.078125 16.949219 112.773438 16.777344 112.3125 16.789062 C 111.113281 16.8125 109.917969 16.789062 108.722656 16.808594 C 108.503906 16.8125 108.289062 16.933594 108.074219 17 C 108.160156 17.210938 108.210938 17.453125 108.34375 17.632812 C 109.785156 19.582031 111.222656 21.53125 112.699219 23.449219 C 113.136719 24.019531 113.195312 24.445312 112.726562 25.050781 C 111.183594 27.058594 109.695312 29.105469 108.199219 31.148438 C 108.019531 31.394531 107.933594 31.714844 107.804688 32 C 108.085938 32.058594 108.367188 32.167969 108.652344 32.171875 C 109.675781 32.1875 110.695312 32.167969 111.71875 32.164062 C 112.324219 32.164062 112.785156 31.945312 113.144531 31.417969 C 113.929688 30.261719 114.761719 29.140625 115.582031 28.007812 C 115.726562 27.808594 115.882812 27.617188 116.0625 27.386719 C 117.074219 28.785156 118.058594 30.09375 118.976562 31.445312 C 119.34375 31.984375 119.777344 32.191406 120.390625 32.179688 C 121.523438 32.160156 122.652344 32.179688 123.785156 32.175781 C 124.011719 32.175781 124.242188 32.148438 124.644531 32.121094 C 124.414062 31.730469 124.28125 31.445312 124.097656 31.195312 C 122.578125 29.117188 121.058594 27.039062 119.519531 24.976562 C 119.167969 24.503906 119.136719 24.132812 119.511719 23.636719 C 120.632812 22.164062 121.710938 20.65625 122.875 19.121094 C 122.917969 19.050781 122.960938 18.980469 123.046875 18.894531 C 123.074219 18.875 123.085938 18.84375 123.15625 18.761719 C 123.511719 18.195312 123.871094 17.628906 124.242188 16.992188 C 124.195312 16.949219 124.148438 16.90625 123.992188 16.816406 M 156.71875 16.78125 C 156.417969 16.765625 156.117188 16.75 155.695312 16.710938 C 154.761719 16.707031 153.828125 16.699219 152.890625 16.699219 C 152.429688 16.703125 152.179688 16.886719 152.179688 17.410156 C 152.191406 22.136719 152.183594 26.859375 152.203125 31.585938 C 152.203125 31.773438 152.4375 31.960938 152.660156 32.183594 C 153.234375 32.171875 153.808594 32.164062 154.503906 32.171875 C 155.03125 32.167969 155.554688 32.160156 156.167969 32.183594 C 156.765625 32.285156 156.96875 32.03125 156.96875 31.425781 C 156.957031 26.800781 156.972656 22.175781 156.96875 17.550781 C 156.96875 17.328125 156.867188 17.105469 156.800781 16.863281 C 156.800781 16.863281 156.78125 16.851562 156.71875 16.78125 M 32.28125 5.398438 C 32.265625 5.21875 32.25 5.035156 32.257812 4.765625 C 32.207031 4.71875 32.15625 4.671875 32.027344 4.65625 C 29.566406 7.117188 27.101562 9.574219 24.652344 12.046875 C 24.472656 12.230469 24.347656 12.550781 24.347656 12.808594 C 24.347656 14.53125 24.390625 16.253906 24.425781 17.976562 C 24.425781 18 24.488281 18.023438 24.589844 18.097656 C 25.152344 17.589844 25.726562 17.0625 26.304688 16.546875 C 27.992188 15.039062 29.683594 13.539062 31.371094 12.027344 C 31.859375 11.585938 32.335938 11.125 32.253906 10.246094 C 32.253906 8.664062 32.253906 7.082031 32.28125 5.398438 M 62.25 32.496094 C 63.035156 32.332031 63.824219 32.195312 64.597656 31.988281 C 64.984375 31.882812 65.242188 31.921875 65.519531 32.21875 C 66.320312 33.078125 67.167969 33.898438 67.964844 34.761719 C 68.363281 35.191406 68.6875 35.273438 69.167969 34.859375 C 69.839844 34.273438 70.570312 33.753906 71.277344 33.210938 C 71.886719 32.738281 71.894531 32.671875 71.34375 32.109375 C 70.53125 31.265625 69.710938 30.429688 68.929688 29.621094 C 69.519531 28.78125 70.148438 28.066406 70.574219 27.246094 C 72.292969 23.960938 72.472656 20.484375 71.652344 16.925781 C 70.828125 13.359375 68.691406 10.878906 65.300781 9.589844 C 62.160156 8.394531 58.917969 8.347656 55.6875 9.214844 C 52.089844 10.183594 49.632812 12.457031 48.4375 16.023438 C 47.597656 18.535156 47.519531 21.117188 48.03125 23.703125 C 48.84375 27.839844 51.238281 30.617188 55.230469 31.945312 C 57.480469 32.691406 59.800781 32.730469 62.25 32.496094 M 97.652344 16.792969 C 96.609375 16.789062 95.5625 16.796875 94.519531 16.785156 C 94.0625 16.777344 93.808594 16.941406 93.679688 17.414062 C 93.003906 19.898438 92.296875 22.375 91.597656 24.855469 C 91.457031 25.367188 91.316406 25.875 91.175781 26.382812 C 90.941406 26.128906 90.839844 25.875 90.753906 25.613281 C 89.859375 22.898438 88.957031 20.183594 88.074219 17.464844 C 87.921875 17.003906 87.671875 16.785156 87.175781 16.800781 C 86.265625 16.824219 85.347656 16.773438 84.4375 16.835938 C 84.191406 16.851562 83.828125 17.117188 83.75 17.347656 C 82.816406 20.046875 81.925781 22.765625 81.023438 25.476562 C 80.917969 25.789062 80.796875 26.09375 80.625 26.550781 C 80.5 26.199219 80.433594 26.039062 80.386719 25.871094 C 79.617188 23.117188 78.824219 20.367188 78.09375 17.601562 C 77.921875 16.964844 77.628906 16.75 77 16.773438 C 76.023438 16.8125 75.046875 16.785156 74.066406 16.792969 C 73.136719 16.800781 73.105469 16.84375 73.378906 17.714844 C 74.828125 22.335938 76.28125 26.957031 77.714844 31.582031 C 77.847656 32.007812 78.046875 32.191406 78.496094 32.183594 C 79.667969 32.164062 80.84375 32.164062 82.019531 32.1875 C 82.460938 32.195312 82.6875 32.023438 82.828125 31.609375 C 83.308594 30.183594 83.816406 28.761719 84.3125 27.34375 C 84.792969 25.976562 85.273438 24.613281 85.8125 23.082031 C 86.007812 23.597656 86.148438 23.9375 86.269531 24.285156 C 87.113281 26.671875 87.964844 29.054688 88.789062 31.445312 C 88.972656 31.976562 89.25 32.214844 89.832031 32.191406 C 90.980469 32.152344 92.136719 32.152344 93.289062 32.179688 C 93.742188 32.1875 93.941406 32.015625 94.070312 31.59375 C 95.5 26.9375 96.949219 22.289062 98.390625 17.640625 C 98.621094 16.894531 98.558594 16.820312 97.652344 16.792969 M 141.292969 31.917969 C 142.136719 31.441406 142.980469 30.96875 143.871094 30.46875 C 145.144531 32.394531 147.023438 32.644531 149.109375 32.324219 C 149.496094 32.265625 149.675781 32.113281 149.664062 31.691406 C 149.640625 30.816406 149.648438 29.941406 149.664062 29.066406 C 149.671875 28.660156 149.546875 28.488281 149.105469 28.480469 C 148.398438 28.464844 148.152344 28.183594 148.113281 27.464844 C 148.09375 27.113281 148.097656 26.765625 148.097656 26.414062 C 148.101562 23.855469 148.117188 21.300781 148.085938 18.742188 C 148.085938 18.484375 147.875 18.066406 147.671875 18 C 144.917969 17.085938 142.125 16.347656 139.1875 16.554688 C 137.019531 16.707031 135.082031 17.378906 133.570312 19.078125 C 131.355469 21.566406 131.214844 26.539062 132.761719 29.296875 C 134.351562 32.128906 137.878906 33.234375 141.292969 31.917969 M 101.277344 25.789062 C 101.277344 27.691406 101.289062 29.597656 101.269531 31.5 C 101.261719 32.011719 101.441406 32.195312 101.953125 32.183594 C 103.082031 32.15625 104.214844 32.160156 105.34375 32.1875 C 105.820312 32.195312 105.988281 32.035156 105.988281 31.542969 C 105.976562 26.84375 105.976562 22.140625 105.992188 17.4375 C 105.996094 16.875 105.757812 16.703125 105.257812 16.707031 C 104.191406 16.710938 103.125 16.707031 102.058594 16.695312 C 101.488281 16.6875 101.257812 16.917969 101.265625 17.523438 C 101.292969 20.234375 101.277344 22.949219 101.277344 25.789062 M 32.359375 27.632812 C 33.121094 28.390625 33.871094 29.160156 35.0625 29.15625 C 37.195312 29.140625 39.324219 29.140625 41.457031 29.128906 C 41.65625 29.128906 41.855469 29.082031 42.191406 29.039062 C 41.945312 28.765625 41.8125 28.597656 41.660156 28.453125 C 39.480469 26.382812 37.277344 24.332031 35.125 22.230469 C 34.429688 21.554688 33.65625 21.261719 32.726562 21.25 C 30.703125 21.226562 28.679688 21.199219 26.660156 21.175781 C 26.429688 21.175781 26.199219 21.210938 25.964844 21.230469 C 25.925781 21.296875 25.886719 21.363281 25.84375 21.429688 C 27.992188 23.476562 30.144531 25.523438 32.359375 27.632812 M 6.851562 29.132812 C 8.480469 29.140625 10.109375 29.152344 11.738281 29.15625 C 12.484375 29.15625 13.148438 28.925781 13.699219 28.410156 C 16.003906 26.25 18.308594 24.09375 20.605469 21.925781 C 20.777344 21.761719 20.898438 21.539062 21.058594 21.320312 C 18.515625 21.320312 16.066406 21.304688 13.617188 21.328125 C 12.84375 21.335938 12.238281 21.746094 11.6875 22.289062 C 9.890625 24.066406 8.066406 25.816406 6.25 27.570312 C 5.785156 28.019531 5.308594 28.457031 4.839844 28.898438 C 4.851562 28.976562 4.867188 29.054688 4.882812 29.132812 C 5.496094 29.132812 6.109375 29.132812 6.851562 29.132812 M 11.054688 17.691406 C 11.832031 18.484375 12.566406 19.3125 13.835938 19.304688 C 15.921875 19.292969 18.007812 19.351562 20.089844 19.375 C 20.320312 19.375 20.550781 19.339844 20.917969 19.308594 C 20.660156 19.035156 20.507812 18.859375 20.34375 18.695312 C 18.058594 16.484375 15.789062 14.253906 13.460938 12.085938 C 13.074219 11.722656 12.429688 11.476562 11.894531 11.457031 C 9.832031 11.378906 7.765625 11.410156 5.703125 11.40625 C 5.542969 11.40625 5.386719 11.449219 5.019531 11.5 C 6.941406 13.765625 9.042969 15.621094 11.054688 17.691406 M 37.609375 15.972656 C 39 14.507812 40.613281 13.25 41.804688 11.484375 C 39.351562 11.484375 37.050781 11.445312 34.75 11.515625 C 34.242188 11.53125 33.648438 11.84375 33.261719 12.207031 C 30.9375 14.378906 28.664062 16.605469 26.375 18.816406 C 26.261719 18.925781 26.171875 19.066406 26 19.28125 C 26.347656 19.300781 26.578125 19.324219 26.804688 19.324219 C 28.851562 19.316406 30.894531 19.296875 32.9375 19.304688 C 33.695312 19.304688 34.351562 19.089844 34.898438 18.570312 C 35.785156 17.730469 36.664062 16.882812 37.609375 15.972656 M 20.308594 10.089844 C 18.492188 8.148438 16.691406 6.1875 14.550781 4.417969 C 14.550781 6.472656 14.554688 8.367188 14.546875 10.265625 C 14.546875 10.925781 14.839844 11.414062 15.324219 11.847656 C 17.320312 13.636719 19.296875 15.449219 21.289062 17.246094 C 21.621094 17.542969 21.988281 17.800781 22.445312 18.160156 C 22.496094 17.796875 22.546875 17.589844 22.546875 17.378906 C 22.554688 16.570312 22.515625 15.761719 22.554688 14.953125 C 22.644531 13.179688 22.253906 11.628906 20.734375 10.53125 C 20.597656 10.433594 20.492188 10.28125 20.308594 10.089844 M 17.453125 33.5 C 18.933594 31.960938 20.414062 30.421875 21.898438 28.890625 C 22.398438 28.382812 22.648438 27.777344 22.652344 27.066406 C 22.664062 25.863281 22.679688 24.664062 22.671875 23.460938 C 22.671875 23.246094 22.578125 23.035156 22.503906 22.707031 C 22.214844 22.933594 22.023438 23.066406 21.847656 23.21875 C 19.917969 24.914062 18.042969 26.679688 16.042969 28.285156 C 14.976562 29.140625 14.453125 30.050781 14.535156 31.429688 C 14.621094 32.964844 14.554688 34.507812 14.554688 36.253906 C 15.578125 35.28125 16.480469 34.421875 17.453125 33.5 M 32.335938 34.320312 C 32.300781 32.945312 32.308594 31.566406 32.210938 30.195312 C 32.183594 29.789062 31.957031 29.296875 31.660156 29.027344 C 29.464844 27.042969 27.230469 25.097656 25 23.148438 C 24.847656 23.011719 24.65625 22.914062 24.410156 22.746094 C 24.363281 23.011719 24.304688 23.175781 24.308594 23.339844 C 24.320312 24.71875 24.292969 26.097656 24.394531 27.46875 C 24.4375 27.984375 24.675781 28.59375 25.027344 28.96875 C 26.820312 30.867188 28.675781 32.710938 30.523438 34.5625 C 31.054688 35.097656 31.625 35.59375 32.335938 36.257812 C 32.335938 35.519531 32.335938 34.984375 32.335938 34.320312 M 126.941406 32.296875 C 127.671875 32.300781 128.40625 32.347656 129.136719 32.296875 C 129.871094 32.246094 130.371094 31.761719 130.460938 31.058594 C 130.566406 30.25 130.589844 29.40625 130.488281 28.597656 C 130.367188 27.679688 129.769531 27.238281 128.738281 27.164062 C 127.65625 27.085938 126.527344 26.9375 125.839844 28.097656 C 125.75 28.246094 125.679688 28.425781 125.679688 28.589844 C 125.664062 29.371094 125.628906 30.152344 125.695312 30.925781 C 125.75 31.609375 126.140625 32.097656 126.941406 32.296875 M 153.1875 14.433594 C 153.921875 14.460938 154.660156 14.539062 155.394531 14.503906 C 156.671875 14.4375 157.082031 14.003906 157.1875 12.734375 C 157.21875 12.34375 157.226562 11.945312 157.203125 11.554688 C 157.140625 10.429688 156.75 9.980469 155.648438 9.8125 C 155.203125 9.746094 154.742188 9.722656 154.289062 9.738281 C 152.464844 9.792969 151.980469 10.296875 151.96875 12.113281 C 151.96875 12.441406 151.992188 12.769531 152.019531 13.09375 C 152.082031 13.765625 152.390625 14.25 153.1875 14.433594 M 105.960938 13.8125 C 106.039062 12.886719 106.195312 11.964844 106.164062 11.042969 C 106.140625 10.371094 105.59375 9.953125 104.941406 9.871094 C 104.214844 9.78125 103.46875 9.722656 102.742188 9.796875 C 101.589844 9.910156 101.234375 10.296875 101.121094 11.453125 C 101.0625 12.03125 101.082031 12.628906 101.152344 13.207031 C 101.246094 13.957031 101.632812 14.359375 102.382812 14.421875 C 103.222656 14.492188 104.074219 14.5 104.910156 14.425781 C 105.257812 14.394531 105.578125 14.082031 105.960938 13.8125 Z M 105.960938 13.8125 "/>
<path style=" stroke:none;fill-rule:nonzero;fill:rgb(29.019609%,21.960784%,82.745099%);fill-opacity:1;" d="M 62.191406 32.507812 C 59.800781 32.730469 57.480469 32.691406 55.230469 31.945312 C 51.238281 30.617188 48.84375 27.839844 48.03125 23.703125 C 47.519531 21.117188 47.597656 18.535156 48.4375 16.023438 C 49.632812 12.457031 52.089844 10.183594 55.6875 9.214844 C 58.917969 8.347656 62.160156 8.394531 65.300781 9.589844 C 68.691406 10.878906 70.828125 13.359375 71.652344 16.925781 C 72.472656 20.484375 72.292969 23.960938 70.574219 27.246094 C 70.148438 28.066406 69.519531 28.78125 68.929688 29.621094 C 69.710938 30.429688 70.53125 31.265625 71.34375 32.109375 C 71.894531 32.671875 71.886719 32.738281 71.277344 33.210938 C 70.570312 33.753906 69.839844 34.273438 69.167969 34.859375 C 68.6875 35.273438 68.363281 35.191406 67.964844 34.761719 C 67.167969 33.898438 66.320312 33.078125 65.519531 32.21875 C 65.242188 31.921875 64.984375 31.882812 64.597656 31.988281 C 63.824219 32.195312 63.035156 32.332031 62.191406 32.507812 M 53.523438 16.90625 C 53.449219 16.804688 53.328125 16.601562 53.304688 16.613281 C 52.902344 16.792969 52.320312 16.863281 52.363281 17.445312 C 52.390625 17.875 52.65625 18.257812 53.207031 18.34375 C 53.132812 18.75 53.058594 19.152344 52.886719 19.535156 C 52.757812 19.152344 52.632812 18.765625 52.503906 18.382812 C 52.441406 18.367188 52.375 18.351562 52.308594 18.335938 C 52.1875 18.554688 51.976562 18.765625 51.964844 18.992188 C 51.9375 19.546875 52.007812 20.105469 52.027344 20.664062 C 52.050781 21.289062 52.394531 21.484375 52.988281 21.496094 C 53.015625 21.8125 53.042969 22.128906 52.980469 22.445312 C 52.796875 22.601562 52.609375 22.757812 52.34375 22.980469 C 52.246094 22.578125 52.199219 22.207031 52.070312 21.867188 C 51.628906 20.6875 51.550781 19.480469 51.644531 18.238281 C 51.671875 17.894531 52.082031 17.3125 51.414062 17.230469 C 50.8125 17.152344 51.023438 17.800781 50.894531 18.140625 C 50.785156 18.429688 50.722656 18.851562 50.515625 18.957031 C 50.328125 19.046875 49.96875 18.785156 49.6875 18.667969 C 49.613281 18.640625 49.550781 18.582031 49.394531 18.476562 C 49.144531 18.988281 48.878906 19.445312 48.6875 19.9375 C 48.21875 21.15625 48.792969 22.265625 49.121094 23.394531 C 49.171875 23.566406 49.414062 23.691406 49.589844 23.8125 C 49.726562 23.910156 49.953125 23.925781 50.035156 24.046875 C 50.515625 24.777344 51.269531 24.847656 52.023438 24.945312 C 52.179688 24.964844 52.402344 25.011719 52.464844 25.125 C 52.875 25.875 53.5 25.769531 54.203125 25.667969 C 54.984375 26.34375 55.722656 27.085938 56.5625 27.675781 C 57.683594 28.464844 60.539062 28.703125 61.664062 28.101562 C 61.199219 27.597656 60.75 27.097656 60.28125 26.617188 C 59.949219 26.273438 59.960938 26.03125 60.429688 25.84375 C 61.480469 25.429688 62.515625 24.980469 63.582031 24.613281 C 63.796875 24.539062 64.167969 24.6875 64.371094 24.851562 C 64.75 25.160156 65.058594 25.558594 65.445312 25.96875 C 65.625 25.667969 65.765625 25.453125 65.886719 25.222656 C 66.890625 23.332031 67.003906 21.296875 66.78125 19.226562 C 66.175781 13.535156 61.769531 12.105469 57.675781 13.136719 C 55.621094 13.65625 54.375 15.128906 53.523438 16.90625 M 49.214844 17.65625 C 49.289062 17.757812 49.359375 17.855469 49.433594 17.957031 C 49.570312 17.839844 49.703125 17.71875 49.835938 17.601562 C 49.808594 17.550781 49.78125 17.5 49.75 17.449219 C 49.582031 17.488281 49.414062 17.523438 49.214844 17.65625 Z M 49.214844 17.65625 "/>
<path style=" stroke:none;fill-rule:nonzero;fill:rgb(29.411766%,21.960784%,82.745099%);fill-opacity:1;" d="M 97.714844 16.792969 C 98.558594 16.820312 98.621094 16.894531 98.390625 17.640625 C 96.949219 22.289062 95.5 26.9375 94.070312 31.59375 C 93.941406 32.015625 93.742188 32.1875 93.289062 32.179688 C 92.136719 32.152344 90.980469 32.152344 89.832031 32.191406 C 89.25 32.214844 88.972656 31.976562 88.789062 31.445312 C 87.964844 29.054688 87.113281 26.671875 86.269531 24.285156 C 86.148438 23.9375 86.007812 23.597656 85.8125 23.082031 C 85.273438 24.613281 84.792969 25.976562 84.3125 27.34375 C 83.816406 28.761719 83.308594 30.183594 82.828125 31.609375 C 82.6875 32.023438 82.460938 32.195312 82.019531 32.1875 C 80.84375 32.164062 79.667969 32.164062 78.496094 32.183594 C 78.046875 32.191406 77.847656 32.007812 77.714844 31.582031 C 76.28125 26.957031 74.828125 22.335938 73.378906 17.714844 C 73.105469 16.84375 73.136719 16.800781 74.066406 16.792969 C 75.046875 16.785156 76.023438 16.8125 77 16.773438 C 77.628906 16.75 77.921875 16.964844 78.09375 17.601562 C 78.824219 20.367188 79.617188 23.117188 80.386719 25.871094 C 80.433594 26.039062 80.5 26.199219 80.625 26.550781 C 80.796875 26.09375 80.917969 25.789062 81.023438 25.476562 C 81.925781 22.765625 82.816406 20.046875 83.75 17.347656 C 83.828125 17.117188 84.191406 16.851562 84.4375 16.835938 C 85.347656 16.773438 86.265625 16.824219 87.175781 16.800781 C 87.671875 16.785156 87.921875 17.003906 88.074219 17.464844 C 88.957031 20.183594 89.859375 22.898438 90.753906 25.613281 C 90.839844 25.875 90.941406 26.128906 91.175781 26.382812 C 91.316406 25.875 91.457031 25.367188 91.597656 24.855469 C 92.296875 22.375 93.003906 19.898438 93.679688 17.414062 C 93.808594 16.941406 94.0625 16.777344 94.519531 16.785156 C 95.5625 16.796875 96.609375 16.789062 97.714844 16.792969 Z M 97.714844 16.792969 "/>
<path style=" stroke:none;fill-rule:nonzero;fill:rgb(29.803923%,22.352941%,83.137256%);fill-opacity:1;" d="M 141.246094 31.9375 C 137.878906 33.234375 134.351562 32.128906 132.761719 29.296875 C 131.214844 26.539062 131.355469 21.566406 133.570312 19.078125 C 135.082031 17.378906 137.019531 16.707031 139.1875 16.554688 C 142.125 16.347656 144.917969 17.085938 147.671875 18 C 147.875 18.066406 148.085938 18.484375 148.085938 18.742188 C 148.117188 21.300781 148.101562 23.855469 148.097656 26.414062 C 148.097656 26.765625 148.09375 27.113281 148.113281 27.464844 C 148.152344 28.183594 148.398438 28.464844 149.105469 28.480469 C 149.546875 28.488281 149.671875 28.660156 149.664062 29.066406 C 149.648438 29.941406 149.640625 30.816406 149.664062 31.691406 C 149.675781 32.113281 149.496094 32.265625 149.109375 32.324219 C 147.023438 32.644531 145.144531 32.394531 143.871094 30.46875 C 142.980469 30.96875 142.136719 31.441406 141.246094 31.9375 M 143.441406 27.160156 C 143.441406 24.953125 143.441406 22.75 143.441406 20.519531 C 142.023438 20.125 140.636719 19.921875 139.230469 20.273438 C 137.839844 20.621094 136.953125 21.539062 136.667969 22.949219 C 136.3125 24.703125 136.203125 26.488281 137.585938 27.878906 C 139.253906 29.558594 142.230469 28.714844 143.378906 27.457031 C 143.417969 27.410156 143.417969 27.335938 143.441406 27.160156 Z M 143.441406 27.160156 "/>
<path style=" stroke:none;fill-rule:nonzero;fill:rgb(29.411766%,21.960784%,82.745099%);fill-opacity:1;" d="M 122.804688 19.160156 C 121.710938 20.65625 120.632812 22.164062 119.511719 23.636719 C 119.136719 24.132812 119.167969 24.503906 119.519531 24.976562 C 121.058594 27.039062 122.578125 29.117188 124.097656 31.195312 C 124.28125 31.445312 124.414062 31.730469 124.644531 32.121094 C 124.242188 32.148438 124.011719 32.175781 123.785156 32.175781 C 122.652344 32.179688 121.523438 32.160156 120.390625 32.179688 C 119.777344 32.191406 119.34375 31.984375 118.976562 31.445312 C 118.058594 30.09375 117.074219 28.785156 116.0625 27.386719 C 115.882812 27.617188 115.726562 27.808594 115.582031 28.007812 C 114.761719 29.140625 113.929688 30.261719 113.144531 31.417969 C 112.785156 31.945312 112.324219 32.164062 111.71875 32.164062 C 110.695312 32.167969 109.675781 32.1875 108.652344 32.171875 C 108.367188 32.167969 108.085938 32.058594 107.804688 32 C 107.933594 31.714844 108.019531 31.394531 108.199219 31.148438 C 109.695312 29.105469 111.183594 27.058594 112.726562 25.050781 C 113.195312 24.445312 113.136719 24.019531 112.699219 23.449219 C 111.222656 21.53125 109.785156 19.582031 108.34375 17.632812 C 108.210938 17.453125 108.160156 17.210938 108.074219 17 C 108.289062 16.933594 108.503906 16.8125 108.722656 16.808594 C 109.917969 16.789062 111.113281 16.8125 112.3125 16.789062 C 112.773438 16.777344 113.078125 16.949219 113.34375 17.324219 C 114.269531 18.617188 115.222656 19.890625 116.207031 21.230469 C 117.003906 20.125 117.855469 19.121094 118.503906 17.996094 C 119.132812 16.90625 120.003906 16.65625 121.179688 16.859375 C 121.300781 17.761719 122.082031 17.855469 122.585938 18.246094 C 122.78125 18.394531 122.917969 18.621094 123.078125 18.8125 C 123.085938 18.84375 123.074219 18.875 122.984375 18.914062 C 122.878906 19.011719 122.839844 19.085938 122.804688 19.160156 Z M 122.804688 19.160156 "/>
<path style=" stroke:none;fill-rule:nonzero;fill:rgb(29.411766%,22.352941%,82.745099%);fill-opacity:1;" d="M 101.277344 25.726562 C 101.277344 22.949219 101.292969 20.234375 101.265625 17.523438 C 101.257812 16.917969 101.488281 16.6875 102.058594 16.695312 C 103.125 16.707031 104.191406 16.710938 105.257812 16.707031 C 105.757812 16.703125 105.996094 16.875 105.992188 17.4375 C 105.976562 22.140625 105.976562 26.84375 105.988281 31.542969 C 105.988281 32.035156 105.820312 32.195312 105.34375 32.1875 C 104.214844 32.160156 103.082031 32.15625 101.953125 32.183594 C 101.441406 32.195312 101.261719 32.011719 101.269531 31.5 C 101.289062 29.597656 101.277344 27.691406 101.277344 25.726562 Z M 101.277344 25.726562 "/>
<path style=" stroke:none;fill-rule:nonzero;fill:rgb(29.803923%,22.352941%,82.745099%);fill-opacity:1;" d="M 156.082031 32.15625 C 155.554688 32.160156 155.03125 32.167969 154.40625 32.128906 C 153.722656 32.105469 153.140625 32.128906 152.558594 32.152344 C 152.4375 31.960938 152.203125 31.773438 152.203125 31.585938 C 152.183594 26.859375 152.191406 22.136719 152.179688 17.410156 C 152.179688 16.886719 152.429688 16.703125 152.890625 16.699219 C 153.828125 16.699219 154.761719 16.707031 155.777344 16.765625 C 156.164062 16.832031 156.472656 16.839844 156.78125 16.851562 C 156.78125 16.851562 156.800781 16.863281 156.785156 16.933594 C 156.757812 17.265625 156.742188 17.527344 156.742188 17.789062 C 156.738281 22.234375 156.726562 26.675781 156.753906 31.121094 C 156.757812 31.683594 156.628906 32.019531 156.082031 32.15625 Z M 156.082031 32.15625 "/>
<path style=" stroke:none;fill-rule:nonzero;fill:rgb(29.411766%,21.960784%,82.745099%);fill-opacity:1;" d="M 32.328125 27.601562 C 30.144531 25.523438 27.992188 23.476562 25.84375 21.429688 C 25.886719 21.363281 25.925781 21.296875 25.964844 21.230469 C 26.199219 21.210938 26.429688 21.175781 26.660156 21.175781 C 28.679688 21.199219 30.703125 21.226562 32.726562 21.25 C 33.65625 21.261719 34.429688 21.554688 35.125 22.230469 C 37.277344 24.332031 39.480469 26.382812 41.660156 28.453125 C 41.8125 28.597656 41.945312 28.765625 42.191406 29.039062 C 41.855469 29.082031 41.65625 29.128906 41.457031 29.128906 C 39.324219 29.140625 37.195312 29.140625 35.0625 29.15625 C 33.871094 29.160156 33.121094 28.390625 32.328125 27.601562 Z M 32.328125 27.601562 "/>
<path style=" stroke:none;fill-rule:nonzero;fill:rgb(29.411766%,22.352941%,83.137256%);fill-opacity:1;" d="M 6.789062 29.132812 C 6.109375 29.132812 5.496094 29.132812 4.882812 29.132812 C 4.867188 29.054688 4.851562 28.976562 4.839844 28.898438 C 5.308594 28.457031 5.785156 28.019531 6.25 27.570312 C 8.066406 25.816406 9.890625 24.066406 11.6875 22.289062 C 12.238281 21.746094 12.84375 21.335938 13.617188 21.328125 C 16.066406 21.304688 18.515625 21.320312 21.058594 21.320312 C 20.898438 21.539062 20.777344 21.761719 20.605469 21.925781 C 18.308594 24.09375 16.003906 26.25 13.699219 28.410156 C 13.148438 28.925781 12.484375 29.15625 11.738281 29.15625 C 10.109375 29.152344 8.480469 29.140625 6.789062 29.132812 Z M 6.789062 29.132812 "/>
<path style=" stroke:none;fill-rule:nonzero;fill:rgb(29.019609%,21.960784%,82.745099%);fill-opacity:1;" d="M 11.019531 17.660156 C 9.042969 15.621094 6.941406 13.765625 5.019531 11.5 C 5.386719 11.449219 5.542969 11.40625 5.703125 11.40625 C 7.765625 11.410156 9.832031 11.378906 11.894531 11.457031 C 12.429688 11.476562 13.074219 11.722656 13.460938 12.085938 C 15.789062 14.253906 18.058594 16.484375 20.34375 18.695312 C 20.507812 18.859375 20.660156 19.035156 20.917969 19.308594 C 20.550781 19.339844 20.320312 19.375 20.089844 19.375 C 18.007812 19.351562 15.921875 19.292969 13.835938 19.304688 C 12.566406 19.3125 11.832031 18.484375 11.019531 17.660156 Z M 11.019531 17.660156 "/>
<path style=" stroke:none;fill-rule:nonzero;fill:rgb(29.803923%,21.960784%,82.745099%);fill-opacity:1;" d="M 37.578125 16.003906 C 36.664062 16.882812 35.785156 17.730469 34.898438 18.570312 C 34.351562 19.089844 33.695312 19.304688 32.9375 19.304688 C 30.894531 19.296875 28.851562 19.316406 26.804688 19.324219 C 26.578125 19.324219 26.347656 19.300781 26 19.28125 C 26.171875 19.066406 26.261719 18.925781 26.375 18.816406 C 28.664062 16.605469 30.9375 14.378906 33.261719 12.207031 C 33.648438 11.84375 34.242188 11.53125 34.75 11.515625 C 37.050781 11.445312 39.351562 11.484375 41.804688 11.484375 C 40.613281 13.25 39 14.507812 37.578125 16.003906 Z M 37.578125 16.003906 "/>
<path style=" stroke:none;fill-rule:nonzero;fill:rgb(29.411766%,21.960784%,82.352942%);fill-opacity:1;" d="M 20.339844 10.121094 C 20.492188 10.28125 20.597656 10.433594 20.734375 10.53125 C 22.253906 11.628906 22.644531 13.179688 22.554688 14.953125 C 22.515625 15.761719 22.554688 16.570312 22.546875 17.378906 C 22.546875 17.589844 22.496094 17.796875 22.445312 18.160156 C 21.988281 17.800781 21.621094 17.542969 21.289062 17.246094 C 19.296875 15.449219 17.320312 13.636719 15.324219 11.847656 C 14.839844 11.414062 14.546875 10.925781 14.546875 10.265625 C 14.554688 8.367188 14.550781 6.472656 14.550781 4.417969 C 16.691406 6.1875 18.492188 8.148438 20.339844 10.121094 Z M 20.339844 10.121094 "/>
<path style=" stroke:none;fill-rule:nonzero;fill:rgb(29.803923%,22.352941%,82.745099%);fill-opacity:1;" d="M 17.417969 33.53125 C 16.480469 34.421875 15.578125 35.28125 14.554688 36.253906 C 14.554688 34.507812 14.621094 32.964844 14.535156 31.429688 C 14.453125 30.050781 14.976562 29.140625 16.042969 28.285156 C 18.042969 26.679688 19.917969 24.914062 21.847656 23.21875 C 22.023438 23.066406 22.214844 22.933594 22.503906 22.707031 C 22.578125 23.035156 22.671875 23.246094 22.671875 23.460938 C 22.679688 24.664062 22.664062 25.863281 22.652344 27.066406 C 22.648438 27.777344 22.398438 28.382812 21.898438 28.890625 C 20.414062 30.421875 18.933594 31.960938 17.417969 33.53125 Z M 17.417969 33.53125 "/>
<path style=" stroke:none;fill-rule:nonzero;fill:rgb(29.411766%,21.960784%,82.352942%);fill-opacity:1;" d="M 32.230469 10.367188 C 32.335938 11.125 31.859375 11.585938 31.371094 12.027344 C 29.683594 13.539062 27.992188 15.039062 26.304688 16.546875 C 25.726562 17.0625 25.152344 17.589844 24.589844 18.097656 C 24.488281 18.023438 24.425781 18 24.425781 17.976562 C 24.390625 16.253906 24.347656 14.53125 24.347656 12.808594 C 24.347656 12.550781 24.472656 12.230469 24.652344 12.046875 C 27.101562 9.574219 29.566406 7.117188 32.070312 4.675781 C 32.15625 4.75 32.195312 4.804688 32.238281 4.855469 C 32.25 5.035156 32.265625 5.21875 32.226562 5.488281 C 32.148438 7.078125 32.125 8.578125 32.109375 10.078125 C 32.109375 10.175781 32.1875 10.269531 32.230469 10.367188 Z M 32.230469 10.367188 "/>
<path style=" stroke:none;fill-rule:nonzero;fill:rgb(29.411766%,21.960784%,82.352942%);fill-opacity:1;" d="M 32.335938 34.382812 C 32.335938 34.984375 32.335938 35.519531 32.335938 36.257812 C 31.625 35.59375 31.054688 35.097656 30.523438 34.5625 C 28.675781 32.710938 26.820312 30.867188 25.027344 28.96875 C 24.675781 28.59375 24.4375 27.984375 24.394531 27.46875 C 24.292969 26.097656 24.320312 24.71875 24.308594 23.339844 C 24.304688 23.175781 24.363281 23.011719 24.410156 22.746094 C 24.65625 22.914062 24.847656 23.011719 25 23.148438 C 27.230469 25.097656 29.464844 27.042969 31.660156 29.027344 C 31.957031 29.296875 32.183594 29.789062 32.210938 30.195312 C 32.308594 31.566406 32.300781 32.945312 32.335938 34.382812 Z M 32.335938 34.382812 "/>
<path style=" stroke:none;fill-rule:nonzero;fill:rgb(29.411766%,21.960784%,82.352942%);fill-opacity:1;" d="M 126.886719 32.285156 C 126.140625 32.097656 125.75 31.609375 125.695312 30.925781 C 125.628906 30.152344 125.664062 29.371094 125.679688 28.589844 C 125.679688 28.425781 125.75 28.246094 125.839844 28.097656 C 126.527344 26.9375 127.65625 27.085938 128.738281 27.164062 C 129.769531 27.238281 130.367188 27.679688 130.488281 28.597656 C 130.589844 29.40625 130.566406 30.25 130.460938 31.058594 C 130.371094 31.761719 129.871094 32.246094 129.136719 32.296875 C 128.40625 32.347656 127.671875 32.300781 126.886719 32.285156 Z M 126.886719 32.285156 "/>
<path style=" stroke:none;fill-rule:nonzero;fill:rgb(29.411766%,21.960784%,81.960785%);fill-opacity:1;" d="M 153.132812 14.421875 C 152.390625 14.25 152.082031 13.765625 152.019531 13.09375 C 151.992188 12.769531 151.96875 12.441406 151.96875 12.113281 C 151.980469 10.296875 152.464844 9.792969 154.289062 9.738281 C 154.742188 9.722656 155.203125 9.746094 155.648438 9.8125 C 156.75 9.980469 157.140625 10.429688 157.203125 11.554688 C 157.226562 11.945312 157.21875 12.34375 157.1875 12.734375 C 157.082031 14.003906 156.671875 14.4375 155.394531 14.503906 C 154.660156 14.539062 153.921875 14.460938 153.132812 14.421875 Z M 153.132812 14.421875 "/>
<path style=" stroke:none;fill-rule:nonzero;fill:rgb(29.803923%,22.352941%,82.352942%);fill-opacity:1;" d="M 105.9375 13.855469 C 105.578125 14.082031 105.257812 14.394531 104.910156 14.425781 C 104.074219 14.5 103.222656 14.492188 102.382812 14.421875 C 101.632812 14.359375 101.246094 13.957031 101.152344 13.207031 C 101.082031 12.628906 101.0625 12.03125 101.121094 11.453125 C 101.234375 10.296875 101.589844 9.910156 102.742188 9.796875 C 103.46875 9.722656 104.214844 9.78125 104.941406 9.871094 C 105.59375 9.953125 106.140625 10.371094 106.164062 11.042969 C 106.195312 11.964844 106.039062 12.886719 105.9375 13.855469 Z M 105.9375 13.855469 "/>
<path style=" stroke:none;fill-rule:nonzero;fill:rgb(35.686275%,30.19608%,80.784315%);fill-opacity:1;" d="M 156.125 32.167969 C 156.628906 32.019531 156.757812 31.683594 156.753906 31.121094 C 156.726562 26.675781 156.738281 22.234375 156.742188 17.789062 C 156.742188 17.527344 156.757812 17.265625 156.789062 16.945312 C 156.867188 17.105469 156.96875 17.328125 156.96875 17.550781 C 156.972656 22.175781 156.957031 26.800781 156.96875 31.425781 C 156.96875 32.03125 156.765625 32.285156 156.125 32.167969 Z M 156.125 32.167969 "/>
<path style=" stroke:none;fill-rule:nonzero;fill:rgb(27.843139%,20.392157%,80.000001%);fill-opacity:1;" d="M 123.117188 18.789062 C 122.917969 18.621094 122.78125 18.394531 122.585938 18.246094 C 122.082031 17.855469 121.300781 17.761719 121.238281 16.871094 C 122.15625 16.820312 123.074219 16.816406 124.050781 16.867188 C 124.152344 16.96875 124.191406 17.015625 124.226562 17.0625 C 123.871094 17.628906 123.511719 18.195312 123.117188 18.789062 Z M 123.117188 18.789062 "/>
<path style=" stroke:none;fill-rule:nonzero;fill:rgb(21.176471%,17.647059%,80.392158%);fill-opacity:1;" d="M 32.242188 10.308594 C 32.1875 10.269531 32.109375 10.175781 32.109375 10.078125 C 32.125 8.578125 32.148438 7.078125 32.210938 5.539062 C 32.253906 7.082031 32.253906 8.664062 32.242188 10.308594 Z M 32.242188 10.308594 "/>
<path style=" stroke:none;fill-rule:nonzero;fill:rgb(35.686275%,30.19608%,80.784315%);fill-opacity:1;" d="M 152.609375 32.167969 C 153.140625 32.128906 153.722656 32.105469 154.34375 32.117188 C 153.808594 32.164062 153.234375 32.171875 152.609375 32.167969 Z M 152.609375 32.167969 "/>
<path style=" stroke:none;fill-rule:nonzero;fill:rgb(35.686275%,30.19608%,80.784315%);fill-opacity:1;" d="M 156.75 16.816406 C 156.472656 16.839844 156.164062 16.832031 155.835938 16.78125 C 156.117188 16.75 156.417969 16.765625 156.75 16.816406 Z M 156.75 16.816406 "/>
<path style=" stroke:none;fill-rule:nonzero;fill:rgb(27.843139%,20.392157%,80.000001%);fill-opacity:1;" d="M 122.839844 19.140625 C 122.839844 19.085938 122.878906 19.011719 122.960938 18.921875 C 122.960938 18.980469 122.917969 19.050781 122.839844 19.140625 Z M 122.839844 19.140625 "/>
<path style=" stroke:none;fill-rule:nonzero;fill:rgb(21.176471%,17.647059%,80.392158%);fill-opacity:1;" d="M 32.246094 4.8125 C 32.195312 4.804688 32.15625 4.75 32.109375 4.660156 C 32.15625 4.671875 32.207031 4.71875 32.246094 4.8125 Z M 32.246094 4.8125 "/>
<path style=" stroke:none;fill-rule:nonzero;fill:rgb(29.411766%,21.960784%,82.745099%);fill-opacity:1;" d="M 124.234375 17.027344 C 124.191406 17.015625 124.152344 16.96875 124.109375 16.894531 C 124.148438 16.90625 124.195312 16.949219 124.234375 17.027344 Z M 124.234375 17.027344 "/>
<path style=" stroke:none;fill-rule:nonzero;fill:rgb(99.215686%,99.215686%,99.607843%);fill-opacity:1;" d="M 53.070312 22.441406 C 53.042969 22.128906 53.015625 21.8125 52.984375 21.386719 C 52.980469 20.699219 52.980469 20.128906 52.984375 19.554688 C 53.058594 19.152344 53.132812 18.75 53.222656 18.246094 C 53.339844 17.769531 53.441406 17.390625 53.542969 17.011719 C 54.375 15.128906 55.621094 13.65625 57.675781 13.136719 C 61.769531 12.105469 66.175781 13.535156 66.78125 19.226562 C 67.003906 21.296875 66.890625 23.332031 65.886719 25.222656 C 65.765625 25.453125 65.625 25.667969 65.445312 25.96875 C 65.058594 25.558594 64.75 25.160156 64.371094 24.851562 C 64.167969 24.6875 63.796875 24.539062 63.582031 24.613281 C 62.515625 24.980469 61.480469 25.429688 60.429688 25.84375 C 59.960938 26.03125 59.949219 26.273438 60.28125 26.617188 C 60.75 27.097656 61.199219 27.597656 61.664062 28.101562 C 60.539062 28.703125 57.683594 28.464844 56.5625 27.675781 C 55.722656 27.085938 54.984375 26.34375 54.179688 25.582031 C 53.796875 24.480469 53.433594 23.460938 53.070312 22.441406 Z M 53.070312 22.441406 "/>
<path style=" stroke:none;fill-rule:nonzero;fill:rgb(29.803923%,22.745098%,83.529413%);fill-opacity:1;" d="M 53.027344 22.445312 C 53.433594 23.460938 53.796875 24.480469 54.15625 25.546875 C 53.5 25.769531 52.875 25.875 52.464844 25.125 C 52.402344 25.011719 52.179688 24.964844 52.023438 24.945312 C 51.269531 24.847656 50.515625 24.777344 50.035156 24.046875 C 49.953125 23.925781 49.726562 23.910156 49.589844 23.8125 C 49.414062 23.691406 49.171875 23.566406 49.121094 23.394531 C 48.792969 22.265625 48.21875 21.15625 48.6875 19.9375 C 48.878906 19.445312 49.144531 18.988281 49.394531 18.476562 C 49.550781 18.582031 49.613281 18.640625 49.6875 18.667969 C 49.96875 18.785156 50.328125 19.046875 50.515625 18.957031 C 50.722656 18.851562 50.785156 18.429688 50.894531 18.140625 C 51.023438 17.800781 50.8125 17.152344 51.414062 17.230469 C 52.082031 17.3125 51.671875 17.894531 51.644531 18.238281 C 51.550781 19.480469 51.628906 20.6875 52.070312 21.867188 C 52.199219 22.207031 52.246094 22.578125 52.34375 22.980469 C 52.609375 22.757812 52.796875 22.601562 53.027344 22.445312 Z M 53.027344 22.445312 "/>
<path style=" stroke:none;fill-rule:nonzero;fill:rgb(29.019609%,21.568628%,82.745099%);fill-opacity:1;" d="M 52.933594 19.546875 C 52.980469 20.128906 52.980469 20.699219 52.972656 21.332031 C 52.394531 21.484375 52.050781 21.289062 52.027344 20.664062 C 52.007812 20.105469 51.9375 19.546875 51.964844 18.992188 C 51.976562 18.765625 52.1875 18.554688 52.308594 18.335938 C 52.375 18.351562 52.441406 18.367188 52.503906 18.382812 C 52.632812 18.765625 52.757812 19.152344 52.933594 19.546875 Z M 52.933594 19.546875 "/>
<path style=" stroke:none;fill-rule:nonzero;fill:rgb(29.803923%,22.745098%,83.529413%);fill-opacity:1;" d="M 53.53125 16.960938 C 53.441406 17.390625 53.339844 17.769531 53.21875 18.199219 C 52.65625 18.257812 52.390625 17.875 52.363281 17.445312 C 52.320312 16.863281 52.902344 16.792969 53.304688 16.613281 C 53.328125 16.601562 53.449219 16.804688 53.53125 16.960938 Z M 53.53125 16.960938 "/>
<path style=" stroke:none;fill-rule:nonzero;fill:rgb(29.803923%,22.745098%,83.529413%);fill-opacity:1;" d="M 49.230469 17.609375 C 49.414062 17.523438 49.582031 17.488281 49.75 17.449219 C 49.78125 17.5 49.808594 17.550781 49.835938 17.601562 C 49.703125 17.71875 49.570312 17.839844 49.433594 17.957031 C 49.359375 17.855469 49.289062 17.757812 49.230469 17.609375 Z M 49.230469 17.609375 "/>
<path style=" stroke:none;fill-rule:nonzero;fill:rgb(99.215686%,99.215686%,99.607843%);fill-opacity:1;" d="M 143.441406 27.214844 C 143.417969 27.335938 143.417969 27.410156 143.378906 27.457031 C 142.230469 28.714844 139.253906 29.558594 137.585938 27.878906 C 136.203125 26.488281 136.3125 24.703125 136.667969 22.949219 C 136.953125 21.539062 137.839844 20.621094 139.230469 20.273438 C 140.636719 19.921875 142.023438 20.125 143.441406 20.519531 C 143.441406 22.75 143.441406 24.953125 143.441406 27.214844 Z M 143.441406 27.214844 "/>
</g>
</svg>
